<svg xmlns="http://www.w3.org/2000/svg" width="90.209" height="110.859" viewBox="0 0 90.209 110.859"><defs><style>.a,.b{fill:#bd9a56;}.a{fill-rule:evenodd;}</style></defs><g transform="translate(0 0)"><g transform="translate(0 0)"><path class="a" d="M20.767,16.094l-.367.367.184,2h1.084v-.874c0-.428.131-.551.551-.551h.725V15.91H21.484c-.472,0-.533.253-.743.577l-.122-.184Z" transform="translate(-2.571 -2.005)"/><path class="b" d="M15.291,0Q13.875,1.311,12.6,2.622A52.621,52.621,0,0,0,5.45,11.256C4.034,13.345,2.12,17.068.39,19.4v3.443a42.614,42.614,0,0,0,4.9-6.354c2.045-3.094,3.907-5.287,6-8.145A43.374,43.374,0,0,1,19.932,0Z" transform="translate(-0.049 0)"/><path class="b" d="M11.194,71.624c0-6.738.961-17.1,2.832-21.91,1.241-3.207,2.561-5.576,3.854-8.477a88.239,88.239,0,0,0,3.137-9.211c2.229-6.642,4.37-11.5,8.565-16.133C31.557,13.707,41.188,6.13,44.439,6.13c.621,0,1.626.664,1.626,1.258,0,.874-5.121,3.129-6.118,3.714a32.738,32.738,0,0,0-5.541,4.256c-2.954,2.989-6.459,7.158-8.058,11.361-1.879,5.043-3.365,8.8-4.413,14.953a110.224,110.224,0,0,0-1.521,17.942V78.187H23.28a15.731,15.731,0,0,0,.2-3.312l-.874-10.182L22.73,62.5c0-13.581,2.194-28.526,7.367-36.785,2.735-4.37,6.336-8.739,10.549-11.562C44.316,11.767,50.076,7.4,55.817,7.4h1.442c6.8,0,14.665,5.078,17.427,9.2a36.481,36.481,0,0,1,6.17,14.612V21.049a26.918,26.918,0,0,0-4.562-7.682C72.239,8.123,62.7,3.22,53.318,3.22c-17.313,0-28.6,9.788-33.21,22.391-2.534,6.9-5.349,13.433-7.63,20.328A78.426,78.426,0,0,0,9,70.322c0,2.709,0,5.331.122,7.866H11.36c-.122-2.22-.192-4.431-.192-6.581" transform="translate(-1.134 -0.406)"/><path class="b" d="M48.1,51.672V44.759c0-10.872,2.526-23.658,12.83-23.658,8.739,0,13,10.61,13,20.022v2.36c0,7.263-4.912,30.378-10.112,30.378h-.533c-2.255,0-3.216-8.407-3.26-11.283-.044-4.606-1.084-8.5-1.084-13.275v-.542c0-2.98.655-15.46,2.718-15.46.734,0,.874,3.164.874,4.186v.874c0,2.482-2.089,18.353.175,18.353h.184c1.591,0,2.351-12.891,2.351-15.644V39.306c0-3.679-.717-9.823-4.16-9.823-4.256,0-4.693,12.795-4.693,17.829v.367c0,5.611.874,10.216,1.066,15.285a30.178,30.178,0,0,0,1.425,6.756,15.485,15.485,0,0,0,1.346,2.622c.42.743,1.748,1.748,1.748,2.237s-.743,1.127-1.407,1.127h-.184c-1.267,0-2.936-3.19-3.5-4.3a25.054,25.054,0,0,1-1.643-6,78.026,78.026,0,0,1-1.556-13.9V47.853c0-4.055.1-10.138.874-13.31.813-3.312,2.517-7.612,6.371-7.612h.7c5.418,0,6.118,9.972,6.118,16.011v2.176a37.667,37.667,0,0,1-1.652,11.624c-.874,2.666-2.692,7.14-2.692,10.566V68.4a.7.7,0,0,0,.725.725h.367c1.189,0,2.307-5.2,2.674-6.389a71.409,71.409,0,0,0,2-7.079A79.171,79.171,0,0,0,70.8,39.288V38.213c0-6.432-3.749-13.826-9.753-13.826h-.175c-8.862.009-10.068,12.865-10.068,22.2,0,10.243,1.363,31.654,10.3,31.654h.516c5.113,0,10.208-10.243,11.72-14.586a64.1,64.1,0,0,0,4.011-22.163c0-6.022-1.591-12.165-3.924-15.871-2.22-3.5-6.729-7.42-12.331-7.42-6.992,0-12.157,5.244-13.8,10.854A60.98,60.98,0,0,0,45.388,50.9c.577,7.97.655,15.189,3.129,21.482a21.071,21.071,0,0,0,4.9,7.691h4.37c-7.105-3.5-9.613-19.1-9.613-28.421" transform="translate(-5.694 -2.294)"/><path class="b" d="M83.51,72.406A23.857,23.857,0,0,1,77,81a26.568,26.568,0,0,1-6.939,3.5h7.595a25.694,25.694,0,0,0,8.556-11.361c.787-2.028,1.573-4.44,2.3-7.062V53.24c-.944,6.93-3.242,15.373-5.034,19.166" transform="translate(-8.831 -6.711)"/><path class="b" d="M45.3,78.394c-1.355-3.924-1.617-6.292-2.447-10.819-.428-2.395-.07-11.02-1.372-11.894C40.21,56.353,40,57.576,40,59.455v6.729A37,37,0,0,0,45.244,84.8H48.53A26.726,26.726,0,0,1,45.3,78.376" transform="translate(-5.042 -7.019)"/><path class="b" d="M30.166,60.83a79.53,79.53,0,0,1,2.622-18.484c.83-2.928,1.4-5.436,2.2-8.329.516-1.844,1.5-7.2,3.33-7.2.682,0,1.075.542,1.075,1.276v.184c0,1.669-1.346,5.628-1.748,7.315-.586,2.368-1.363,4.868-1.809,7.105-.961,4.6-2.639,9.745-2.639,15.189v4.186A49.4,49.4,0,0,0,36.825,79.2h3c-2.674-4.981-4.09-11.361-4.09-18.79,0-10.05,3.863-19.664,5.611-28.543,1.136-5.733,1.529-8.381,5.086-11.973,2.438-2.438,6.93-5.139,11.7-5.139h1.084c11.475,0,19.148,12.664,19.148,24.733v1.1a62.1,62.1,0,0,1-3.216,18.493,58.557,58.557,0,0,1-3.129,7.866c-.725,1.477-3.548,5.838-3.548,7.166a.7.7,0,0,0,.725.717c1.809,0,4.265-4.606,5.165-6.074,1.241-2,2.185-5.532,3.033-8.04,1.547-4.623,3.54-12.7,3.54-18.624V38.413c0-12.795-8.975-27.293-21.123-27.293C50.2,11.12,38.259,21.5,34.815,28.171c-2.84,5.506-3.828,8.967-5.174,15.9a96.684,96.684,0,0,0-2,18.9A53.424,53.424,0,0,0,30.262,79.2h3.1a56.273,56.273,0,0,1-3.2-18.37" transform="translate(-3.484 -1.402)"/><path class="b" d="M19.687,15c-.419,0-.551.122-.551.551v.874H18.061l-.184-2c-1.748,2.622-3.618,5.384-5.488,7.935-1.748,2.386-4.37,4.51-6.188,7.053C3.851,32.659,2.12,37.108.39,41.416V62.924c.262-2.185.489-4.667.507-5.9A63.431,63.431,0,0,1,4.27,39.686c1.337-3.295,4.877-11.667,7.464-13.048a1.6,1.6,0,0,1,.725,1.468c0,.961-3.749,8.949-4.37,10.313A45.664,45.664,0,0,0,4.76,49.632c-.778,4.317-.874,8.573-1.556,13A101.2,101.2,0,0,0,1.972,75.946,13.032,13.032,0,0,0,2.059,77.8h3.4V67.574a86.59,86.59,0,0,1,3.9-24.628c1.215-3.688,2.7-6.52,3.933-10.234,1.084-3.277,2.386-7.472,3.723-10.435C22.37,10.33,34.133.079,51.306.079c7.429,0,12.515,1.092,17.479,3.7A34.084,34.084,0,0,1,74.9,8.145a36.5,36.5,0,0,1,2.526,2.735c.507.594,1.923,2.823,2.211,3.041h.1V9.43c-.323-.411-.664-.874-1.014-1.346C76.852,5.462,71.005,1.39,67.693.1L67.457,0h-30.9c-1.634.638-3.146,1.363-4.833,2.2-2.989,1.5-4.92,3.356-7.455,5.244a47.079,47.079,0,0,0-6.03,6.651l-.149.218.122.184c.218-.323.271-.577.743-.577h1.459v1.084Z" transform="translate(-0.049 0)"/><path class="b" d="M.39,33.769q.647-1.224,1.346-2.456a85.912,85.912,0,0,1,6.179-8.591c2.15-2.884,4.221-5.646,6.432-8.25C19.031,8.923,23.751,3.732,29.938,0H24.415c-4.37,3.12-7.988,7.114-11.554,10.863A78.27,78.27,0,0,0,6.35,19.227c-1.931,2.989-4.151,5.7-5.96,8.8Z" transform="translate(-0.049 0)"/><path class="b" d="M90.576,3.443V0H86.11a37.328,37.328,0,0,1,4.466,3.443" transform="translate(-10.854 0)"/><path class="b" d="M91.023,80.221V76.83c-.114.35-1.3,3.05-1.363,3.33Z" transform="translate(-11.302 -9.684)"/><path class="b" d="M2.837,0H.39V3.216Q1.583,1.577,2.837,0" transform="translate(-0.049 0)"/><path class="b" d="M83.9,87.756h3.583A31.35,31.35,0,0,0,90.289,83.5V79.13a.612.612,0,0,0-.1.42v.874H88.925A27.044,27.044,0,0,1,83.9,87.738" transform="translate(-10.576 -9.974)"/><path class="b" d="M0,14.272C.874,13,1.748,11.737,2.508,10.5A60.809,60.809,0,0,1,10.828,0H6.406A49.178,49.178,0,0,0,2.115,5.366C1.39,6.406.69,7.376,0,8.355Z" transform="translate(0 0)"/><path class="b" d="M18.243,72.795V70.243c0-2.622.175-5.06.358-7.638s1.084-4.457,1.084-6.913V54.424c0-.708-.682-1.634-1.258-1.634-1.844,0-3.076,18.554-3.076,22.19v9.482h3.19c-.184-3.714-.271-7.568-.271-11.659" transform="translate(-1.935 -6.654)"/><path class="b" d="M11.93,89.716V79.229h69.3V11.48H91.713V89.716Zm.411-10.033V89.3h78.97V11.891H81.636V79.657Z" transform="translate(-1.504 -1.447)"/><path class="b" d="M130.53,33.68h4.884v.832h-4.031v2.673h4v.837h-4v3.35h4V42.2H130.53Z" transform="translate(-130.19 59.508)"/><path class="b" d="M145.66,33.68h.849v7.705h3.283v.82H145.66Z" transform="translate(-138.96 59.508)"/><path class="b" d="M158.71,33.68H163.6v.832h-4.035v2.673h4v.837h-4v3.35h4V42.2H158.71Z" transform="translate(-146.525 59.508)"/><path class="b" d="M181.575,34.817l-.66.626a5.073,5.073,0,0,0-1.559-1.085A4.2,4.2,0,0,0,177.7,34a3.96,3.96,0,0,0-1.908.492,3.582,3.582,0,0,0-1.408,1.337,3.451,3.451,0,0,0-.5,1.782,3.514,3.514,0,0,0,.517,1.829,3.649,3.649,0,0,0,1.425,1.362,4.1,4.1,0,0,0,1.992.5,3.4,3.4,0,0,0,2.224-.74,2.943,2.943,0,0,0,1.076-1.925H178.4v-.841h3.674a4.275,4.275,0,0,1-1.173,3.14,4.2,4.2,0,0,1-3.111,1.164,4.674,4.674,0,0,1-3.745-1.614A4.279,4.279,0,0,1,173,37.646a4.4,4.4,0,0,1,.609-2.257,4.338,4.338,0,0,1,1.681-1.631,4.867,4.867,0,0,1,2.4-.589,5.342,5.342,0,0,1,2.039.391,6.1,6.1,0,0,1,1.866,1.261" transform="translate(-154.808 59.804)"/><path class="b" d="M200.907,33.68l3.976,8.542h-.929l-1.341-2.8H198.94l-1.32,2.8h-.95L200.7,33.7ZM200.8,35.5l-1.471,3.081h2.942Z" transform="translate(-168.528 59.508)"/><path class="b" d="M219.37,42.529V33.68h.192l5.89,6.785V33.68h.873v8.849h-.2l-5.842-6.7v6.7Z" transform="translate(-182.02 59.76)"/><path class="b" d="M238.23,34.517V33.68h4.67v.836H241v7.693h-.87V34.517Z" transform="translate(-192.619 59.508)"/><path class="b" d="M266.721,40.99l1.261,1.6h-1.051l-.87-1.1a4.594,4.594,0,0,1-5.548-.656,4.275,4.275,0,0,1-1.3-3.14,4.553,4.553,0,0,1,.6-2.283,4.322,4.322,0,0,1,1.627-1.644,4.522,4.522,0,0,1,6.393,5.7,4.716,4.716,0,0,1-1.11,1.53m-.525-.664a3.783,3.783,0,0,0,.643-4.51,3.613,3.613,0,0,0-6.263.013A3.711,3.711,0,0,0,260.1,37.7a3.609,3.609,0,0,0,5.435,3.119l-1.9-2.409h1.034Z" transform="translate(-204.78 59.798)"/><path class="b" d="M284.75,33.68h.841v5.149a10.613,10.613,0,0,0,.034,1.143,1.889,1.889,0,0,0,.294.841,1.733,1.733,0,0,0,.727.567,2.219,2.219,0,0,0,.967.231,1.908,1.908,0,0,0,.811-.181,1.789,1.789,0,0,0,.635-.5,2.038,2.038,0,0,0,.42-.769,6.424,6.424,0,0,0,.088-1.333V33.68h.841v5.149a6.261,6.261,0,0,1-.223,1.845,2.521,2.521,0,0,1-.9,1.227,2.551,2.551,0,0,1-1.618.521,3.11,3.11,0,0,1-1.77-.492,2.366,2.366,0,0,1-.984-1.3,6.892,6.892,0,0,1-.156-1.795Z" transform="translate(-219.585 59.508)"/><path class="b" d="M303.23,33.674h1.681a4.005,4.005,0,0,1,1.559.24,1.908,1.908,0,0,1,.866.736,2.022,2.022,0,0,1,.315,1.11,2,2,0,0,1-.277,1.034,2.056,2.056,0,0,1-.811.757,3.14,3.14,0,0,1,1.021.53,2.127,2.127,0,0,1,.559.736,2.207,2.207,0,0,1,.2.937,2.3,2.3,0,0,1-.752,1.736,2.8,2.8,0,0,1-2.022.727H303.23Zm.841.841v2.728h.488a3.783,3.783,0,0,0,1.307-.164,1.4,1.4,0,0,0,.66-.521,1.366,1.366,0,0,0,.244-.79,1.118,1.118,0,0,0-.42-.921,2.06,2.06,0,0,0-1.3-.332Zm0,3.59v3.27h1.059a3.783,3.783,0,0,0,1.37-.185,1.56,1.56,0,0,0,.7-.572,1.488,1.488,0,0,0-.109-1.833,1.9,1.9,0,0,0-1.013-.584,7.39,7.39,0,0,0-1.517-.105Z" transform="translate(-230.297 59.513)"/><path class="b" d="M319.4,33.68h4.889v.832h-4.035v2.673h4v.837h-4v3.35h4V42.2H319.4Z" transform="translate(-239.671 59.508)"/><path class="b" d="M332.43,40.313l.723-.42q.765,1.408,1.77,1.408a1.681,1.681,0,0,0,.807-.2,1.412,1.412,0,0,0,.576-.538,1.391,1.391,0,0,0,.2-.715,1.446,1.446,0,0,0-.29-.841,6.976,6.976,0,0,0-1.442-1.379,7.457,7.457,0,0,1-1.349-1.177,2.136,2.136,0,0,1-.45-1.3,1.984,1.984,0,0,1,.265-1.013,1.908,1.908,0,0,1,.752-.723,2.169,2.169,0,0,1,1.051-.261,2.232,2.232,0,0,1,1.126.3,3.863,3.863,0,0,1,1.127,1.106l-.7.525a3.365,3.365,0,0,0-.841-.841,1.408,1.408,0,0,0-.74-.2,1.168,1.168,0,0,0-.841.311,1.025,1.025,0,0,0-.328.773,1.308,1.308,0,0,0,.118.538,1.993,1.993,0,0,0,.42.567q.168.164,1.1.841a6.209,6.209,0,0,1,1.526,1.484,2.344,2.344,0,0,1,.42,1.261,2.173,2.173,0,0,1-.706,1.61,2.366,2.366,0,0,1-1.711.685,2.521,2.521,0,0,1-1.408-.42,3.782,3.782,0,0,1-1.164-1.387" transform="translate(-247.224 59.815)"/><path class="b" d="M145.27,66.5V60.11h1.324a6.725,6.725,0,0,1,2.081.231,2.77,2.77,0,0,1,1.454,1.131,3.439,3.439,0,0,1,.521,1.917,3.363,3.363,0,0,1-.42,1.681,2.682,2.682,0,0,1-1.08,1.076,4.056,4.056,0,0,1-1.858.349Zm.614-.605h.74a6.91,6.91,0,0,0,1.841-.164,2.127,2.127,0,0,0,1.131-.841,2.6,2.6,0,0,0,.42-1.492,2.728,2.728,0,0,0-.45-1.581,2.257,2.257,0,0,0-1.261-.9,7.565,7.565,0,0,0-1.976-.181h-.45Z" transform="translate(-138.734 44.191)"/><path class="b" d="M161.03,60.12h3.661v.626h-3.022v2.005h3v.622h-3v2.514h3v.626H161.03Z" transform="translate(-147.869 44.182)"/><path class="b" d="M177.916,61.076l-.5.387a2.745,2.745,0,0,0-1-.841,2.942,2.942,0,0,0-1.282-.282,2.841,2.841,0,0,0-1.417.366,2.64,2.64,0,0,0-1.009.988,2.732,2.732,0,0,0-.357,1.391,2.61,2.61,0,0,0,.8,1.95,2.774,2.774,0,0,0,2.026.8,2.842,2.842,0,0,0,2.245-1.051l.5.383a3.211,3.211,0,0,1-1.194.942,3.745,3.745,0,0,1-1.6.332,3.325,3.325,0,0,1-2.644-1.118,3.363,3.363,0,0,1-.811-2.274,3.174,3.174,0,0,1,.975-2.371,3.4,3.4,0,0,1,2.467-.958,3.594,3.594,0,0,1,1.614.353,3.124,3.124,0,0,1,1.181.992" transform="translate(-154.042 44.416)"/><path class="b" d="M192.224,59.738a3.316,3.316,0,0,1,2.434.95,3.363,3.363,0,0,1-2.379,5.742,3.27,3.27,0,0,1-2.4-.975A3.2,3.2,0,0,1,188.9,63.1a3.41,3.41,0,0,1,.462-1.686,3.228,3.228,0,0,1,1.215-1.232,3.262,3.262,0,0,1,1.681-.446m.029.622a2.728,2.728,0,0,0-2.337,1.366,2.762,2.762,0,0,0-.357,1.4,2.686,2.686,0,0,0,2.69,2.707,2.737,2.737,0,0,0,1.379-.362,2.581,2.581,0,0,0,.958-1,2.775,2.775,0,0,0,.353-1.391,2.707,2.707,0,0,0-.353-1.375,2.648,2.648,0,0,0-1-.988,2.72,2.72,0,0,0-1.366-.37" transform="translate(-164.024 44.405)"/><path class="b" d="M208.05,60.115h1.261a7.78,7.78,0,0,1,1.442.088,1.639,1.639,0,0,1,.925.559,1.593,1.593,0,0,1,.357,1.055,1.712,1.712,0,0,1-.244.916,1.526,1.526,0,0,1-.7.6,3.207,3.207,0,0,1-1.261.206l2.3,2.968h-.778l-2.3-2.968h-.361V66.5h-.639Zm.639.626V62.91h1.1a2.72,2.72,0,0,0,.946-.122.984.984,0,0,0,.479-.387,1.085,1.085,0,0,0,.172-.6,1.043,1.043,0,0,0-.172-.584.98.98,0,0,0-.458-.378,2.812,2.812,0,0,0-.942-.114Z" transform="translate(-175.125 44.188)"/><path class="b" d="M222.624,60.12l2.98,6.389h-.689l-1-2.1h-2.753l-1,2.1h-.71l3.018-6.389Zm-.08,1.358-1.1,2.312h2.186Z" transform="translate(-181.734 44.182)"/><path class="b" d="M234.96,60.752V60.13h3.5v.622h-1.425v5.767h-.651V60.752Z" transform="translate(-190.724 44.176)"/><rect class="b" width="0.639" height="6.389" transform="translate(48.57 104.306)"/><path class="b" d="M252.919,59.734a3.317,3.317,0,0,1,2.43.967,3.363,3.363,0,0,1-2.379,5.742,3.27,3.27,0,0,1-2.4-.975,3.2,3.2,0,0,1-.979-2.354,3.4,3.4,0,0,1,.446-1.707,3.228,3.228,0,0,1,1.215-1.232,3.262,3.262,0,0,1,1.681-.446m.029.622a2.724,2.724,0,0,0-2.358,1.37,2.761,2.761,0,0,0-.357,1.4,2.686,2.686,0,0,0,2.69,2.707,2.736,2.736,0,0,0,1.379-.361,2.58,2.58,0,0,0,1-1,2.783,2.783,0,0,0,.353-1.391,2.716,2.716,0,0,0-.353-1.375,2.648,2.648,0,0,0-1-.988,2.719,2.719,0,0,0-1.366-.37" transform="translate(-199.204 44.408)"/><path class="b" d="M268.67,66.514V60.12h.139l4.254,4.9v-4.9h.631v6.394h-.143l-4.22-4.842v4.842Z" transform="translate(-210.264 44.182)"/><path class="b" d="M290.18,60.12h.639V65.9h2.459v.618h-3.1Z" transform="translate(-222.733 44.182)"/><path class="b" d="M299.96,60.12h.635V65.9h2.459v.618H299.96Z" transform="translate(-228.402 44.182)"/><path class="b" d="M315.258,61.076l-.5.387a2.753,2.753,0,0,0-1-.841,2.942,2.942,0,0,0-1.286-.282,2.841,2.841,0,0,0-1.417.366,2.627,2.627,0,0,0-1.009.988,2.733,2.733,0,0,0-.357,1.391,2.606,2.606,0,0,0,.8,1.95,2.77,2.77,0,0,0,2.022.782,2.841,2.841,0,0,0,2.245-1.051l.5.383a3.224,3.224,0,0,1-1.194.942,3.745,3.745,0,0,1-1.6.332,3.32,3.32,0,0,1-2.627-1.1A3.362,3.362,0,0,1,309,63.047a3.174,3.174,0,0,1,1-2.371,3.4,3.4,0,0,1,2.467-.958,3.6,3.6,0,0,1,1.614.353,3.128,3.128,0,0,1,1.181.992" transform="translate(-233.642 44.416)"/><path class="b" d="M327.559,73.05a.513.513,0,0,1,.378.156.542.542,0,0,1,0,.761.525.525,0,0,1-.752,0,.542.542,0,0,1,0-.761.513.513,0,0,1,.378-.156" transform="translate(-244.093 36.687)"/></g></g></svg>