<svg xmlns="http://www.w3.org/2000/svg" viewBox="0 0 168.45 227.94"><defs><style>.cls-1,.cls-3{fill:#c36e53;}.cls-2{fill:#2a368c;}.cls-3{font-size:53.81px;font-family:Marchila;}</style></defs><g id="Layer_2" data-name="Layer 2"><g id="Layer_1-2" data-name="Layer 1"><path class="cls-1" d="M93.72,110.82v26.3H77.19V106.2c-8.68-1-17.08-2.34-25.57-.23-6.24,1.55-10.48,5.08-11.82,11.45s-.37,12.65,5.22,16.8c12.16,9,25.68,15.11,41.12,14.39,26.79-1.23,47.41-13.61,60-37.29,12.71-23.94,11.41-48-3-71.19-1.76-2.84-2.17-6-2.52-9.19a57.92,57.92,0,0,1-.42-7.37c2.57,3.18,5.33,6.23,7.67,9.57a77,77,0,0,1,14.37,46.71,78.15,78.15,0,0,1-60.68,74.62A75.49,75.49,0,0,1,53.37,150c-11.29-5-17.84-13.89-18.67-26.31-.67-10.13,4.37-17.49,12.93-22.49,5.65-3.31,11.95-4.63,18.41-5,9-.47,18.06-.73,27.09-1,6.92-.22,13.82-.67,20.4-3,7.56-2.63,12.5-7.84,14.27-15.76.79-3.56-.51-6.05-3.82-7.56-1.84-.84-3.78-1.46-5.67-2.18a5.65,5.65,0,0,1,6.76-2.43c6.71,2.47,10.19,7.68,11.24,14.43,1.28,8.26-2.22,15.06-7.59,21-6,6.62-13.85,9.69-22.6,10.5C102.09,110.61,98,110.63,93.72,110.82Z"/><path class="cls-2" d="M29.74,134.45c-2.24-2.49-4.61-4.87-6.68-7.49A78.16,78.16,0,0,1,49.7,8.12C71.12-2.13,93-2.69,114.92,6.53a34,34,0,0,1,18.61,18.35c5.92,13.71-.54,25.71-11,31.77-5.71,3.32-12.11,4.4-18.57,5.11-3.29.36-6.59.67-10.19,1v27.3H77.27V63.33c-1.82,0-3.46,0-5.1,0A68.64,68.64,0,0,0,53.81,66c-7.35,2.24-12.34,6.86-13.93,14.62-.77,3.76.4,5.87,4,7.33,1.52.62,3.1,1.11,4.67,1.66a5.55,5.55,0,0,1-6.68,2.15C34.52,89,30.09,80,32.14,71.91c3-11.66,13-20.17,25.28-21.72,8.8-1.12,17.51-.51,26.24.51,8.39,1,16.75,2.29,25.24,2.11a37.3,37.3,0,0,0,12.58-2.15c9.75-3.68,11.6-15.51,7.33-22.38-4.75-7.67-11.64-12.45-19.91-15.66A69.78,69.78,0,0,0,27.26,36.81a69.06,69.06,0,0,0-13.2,47.77,67.47,67.47,0,0,0,12.48,34.06,12.36,12.36,0,0,1,2.05,4.8c.67,3.55,1,7.18,1.43,10.77Z"/><text class="cls-3" transform="translate(4.58 194.02) scale(1.09 1)">twiggy</text><path class="cls-2" d="M4,212.3v-9.25h-4v-1.72H10.21v1.72h-4v9.25Z"/><path class="cls-2" d="M11.88,212.3v-11H16.8a7.22,7.22,0,0,1,2.73.46,3.92,3.92,0,0,1,1.75,1.34,3.58,3.58,0,0,1,.61,2.1,3.45,3.45,0,0,1-.61,2.07,4,4,0,0,1-1.75,1.33,7.21,7.21,0,0,1-2.73.47H13.13l1-.91v4.11Zm2.22-3.89-1-1H16.7a3.58,3.58,0,0,0,2.21-.58,1.93,1.93,0,0,0,.74-1.62,1.88,1.88,0,0,0-.74-1.6,3.51,3.51,0,0,0-2.21-.58H13.13l1-1Zm5.61,3.89-3-4h2.38l3,4Z"/><path class="cls-2" d="M22.68,212.3l5.38-11h2.18l5.4,11H33.3l-4.61-9.89h.89L25,212.3Zm2.47-2.54.62-1.6h6.44l.59,1.6Z"/><path class="cls-2" d="M40.06,212.3l-5.22-11h2.4l4.67,9.92H40.5l4.75-9.92h2.21l-5.21,11Z"/><path class="cls-2" d="M50.94,210.57h6.74v1.73h-9v-11h8.72v1.72h-6.5Zm-.17-4.68h5.94v1.68H50.77Z"/><path class="cls-2" d="M60.16,212.3v-11h2.22v9.24h6.25v1.73Z"/><path class="cls-2" d="M74,212.45a9.73,9.73,0,0,1-2.67-.36,6.25,6.25,0,0,1-2-1l.76-1.58a6.56,6.56,0,0,0,1.78.86,7,7,0,0,0,2.17.34,4.94,4.94,0,0,0,1.52-.19,1.78,1.78,0,0,0,.85-.5,1.13,1.13,0,0,0,.28-.73,1,1,0,0,0-.4-.81,3.07,3.07,0,0,0-1-.49,13.71,13.71,0,0,0-1.39-.32c-.5-.1-1-.23-1.52-.37a7.21,7.21,0,0,1-1.39-.56,2.67,2.67,0,0,1-1-.9,2.49,2.49,0,0,1-.39-1.44,2.85,2.85,0,0,1,.52-1.64,3.56,3.56,0,0,1,1.59-1.19,7,7,0,0,1,2.71-.45,9.61,9.61,0,0,1,2.13.25,6.73,6.73,0,0,1,1.85.72l-.7,1.59a6.65,6.65,0,0,0-1.66-.65,6.89,6.89,0,0,0-1.64-.21,4.51,4.51,0,0,0-1.49.2,1.91,1.91,0,0,0-.84.54,1.15,1.15,0,0,0-.27.74,1,1,0,0,0,.39.81,3,3,0,0,0,1,.48c.41.11.88.22,1.39.33s1,.23,1.52.37a6.52,6.52,0,0,1,1.38.55,2.84,2.84,0,0,1,1,.89,2.48,2.48,0,0,1,.38,1.42,2.76,2.76,0,0,1-.52,1.62,3.6,3.6,0,0,1-1.6,1.19A7,7,0,0,1,74,212.45Z"/></g></g></svg>